{
    "asset": {
        "version": "2.0",
        "generator": "Open Asset Import Library (assimp v5.4.0)"
    },
    "extensionsUsed": [
        "KHR_materials_volume",
        "FB_ngon_encoding"
    ],
    "accessors": [
        {
            "bufferView": 0,
            "byteOffset": 0,
            "componentType": 5126,
            "count": 27791,
            "type": "VEC3",
            "max": [
                0.35743826627731323,
                0.34901273250579834,
                0.3516176640987396
            ],
            "min": [
                -0.3465285897254944,
                -0.3475782871246338,
                -0.3476046919822693
            ]
        },
        {
            "bufferView": 1,
            "byteOffset": 0,
            "componentType": 5126,
            "count": 27791,
            "type": "VEC3",
            "max": [
                0.9999969601631165,
                0.9999986886978149,
                0.9998536705970764
            ],
            "min": [
                -0.9998013973236084,
                -0.9999489188194275,
                -0.9999737739562988
            ]
        },
        {
            "bufferView": 2,
            "byteOffset": 0,
            "componentType": 5126,
            "count": 27791,
            "type": "VEC2",
            "max": [
                0.991004467010498,
                0.9999396800994873
            ],
            "min": [
                0.00017212331295013428,
                0.00005060434341430664
            ]
        },
        {
            "bufferView": 3,
            "byteOffset": 0,
            "componentType": 5125,
            "count": 150000,
            "type": "SCALAR",
            "max": [
                27790
            ],
            "min": [
                0
            ]
        }
    ],
    "buffers": [
        {
            "byteLength": 1489312,
            "uri": "panda_0.bin"
        }
    ],
    "bufferViews": [
        {
            "buffer": 0,
            "byteOffset": 0,
            "byteLength": 333492,
            "target": 34962
        },
        {
            "buffer": 0,
            "byteOffset": 333492,
            "byteLength": 333492,
            "target": 34962
        },
        {
            "buffer": 0,
            "byteOffset": 666984,
            "byteLength": 222328,
            "target": 34962
        },
        {
            "buffer": 0,
            "byteOffset": 889312,
            "byteLength": 600000,
            "target": 34963
        }
    ],
    "images": [
        {
            "uri": "textures/image_0.png"
        }
    ],
    "materials": [
        {
            "name": "Mat_1",
            "pbrMetallicRoughness": {
                "baseColorTexture": {
                    "index": 0
                },
                "metallicFactor": 0.0,
                "roughnessFactor": 0.8999999761581421
            }
        }
    ],
    "meshes": [
        {
            "name": "meshes[0]",
            "primitives": [
                {
                    "mode": 4,
                    "material": 0,
                    "indices": 3,
                    "attributes": {
                        "POSITION": 0,
                        "NORMAL": 1,
                        "TEXCOORD_0": 2
                    }
                }
            ]
        }
    ],
    "nodes": [
        {
            "name": "panda",
            "children": [
                1
            ]
        },
        {
            "name": "geometry_0",
            "mesh": 0,
            "extras": {
                "name": "geometry_0"
            }
        }
    ],
    "samplers": [
        {
            "magFilter": 9729,
            "minFilter": 9987
        }
    ],
    "scenes": [
        {
            "nodes": [
                0
            ]
        }
    ],
    "textures": [
        {
            "source": 0,
            "sampler": 0
        }
    ],
    "scene": 0
}